Coordinates
version=1
nRows=16
nColumns=40
inDegrees=yes

Units are S.I. units (second, meters, Newtons, ...)
If the header above contains a line with 'inDegrees', this indicates whether rotational values are in degrees (yes) or radians (no).

endheader
time	pelvis_tilt	pelvis_list	pelvis_rotation	pelvis_tx	pelvis_ty	pelvis_tz	hip_flexion_r	hip_adduction_r	hip_rotation_r	knee_angle_r	knee_angle_r_beta	ankle_angle_r	subtalar_angle_r	mtp_angle_r	hip_flexion_l	hip_adduction_l	hip_rotation_l	knee_angle_l	knee_angle_l_beta	ankle_angle_l	subtalar_angle_l	mtp_angle_l	lumbar_extension	lumbar_bending	lumbar_rotation	arm_flex_r	arm_add_r	arm_rot_r	elbow_flex_r	pro_sup_r	wrist_flex_r	wrist_dev_r	arm_flex_l	arm_add_l	arm_rot_l	elbow_flex_l	pro_sup_l	wrist_flex_l	wrist_dev_l
      0.00500000	     -5.26556366	     10.45050135	      2.99922855	     -0.59720742	      0.90194483	      0.20057759	     34.32438485	    -16.15962493	    -18.98166933	      7.56128527	      0.13196932	      1.74133471	     13.95178455	      0.00000000	    -12.52883114	      9.11795693	    -16.58138393	      9.90029357	      0.17279272	      6.03264881	     13.72755816	      0.00000000	      0.00000000	      0.00000000	      0.00000000	     43.81476075	    -16.53984295	     43.81476075	     75.29631029	     44.88118720	      0.00000000	      0.00000000	     43.81476075	    -16.53984295	     43.81476075	     75.29631029	     44.88118720	      0.00000000	      0.00000000
      0.01000000	     -5.33254670	     10.43749260	      3.06735208	     -0.59267245	      0.90128587	      0.20081328	     34.36499623	    -16.13515304	    -18.88976925	      7.63108484	      0.13318756	      1.67715458	     13.92500355	      0.00000000	    -12.71452407	      9.01910659	    -16.50168907	      9.99248277	      0.17440172	      5.92749781	     13.76747032	      0.00000000	      0.00000000	      0.00000000	      0.00000000	     43.81486883	    -16.53961093	     43.81486883	     75.29622293	     44.88128441	      0.00000000	      0.00000000	     43.81486883	    -16.53961093	     43.81486883	     75.29622293	     44.88128441	      0.00000000	      0.00000000
      0.01500000	     -5.30669493	     10.39045637	      3.25558172	     -0.58761817	      0.90083816	      0.20088234	     34.29308637	    -16.15744782	    -18.97124176	      7.82269018	      0.13653170	      1.56056039	     13.45415292	      0.00000000	    -12.98616118	      8.82311762	    -16.38334555	     10.17712227	      0.17762429	      5.64639138	     13.84766434	      0.00000000	      0.00000000	      0.00000000	      0.00000000	     43.81553173	    -16.53818751	     43.81553173	     75.29568691	     44.88188034	      0.00000000	      0.00000000	     43.81553173	    -16.53818751	     43.81553173	     75.29568691	     44.88188034	      0.00000000	      0.00000000
      0.02000000	     -5.37762584	     10.34629799	      3.35843273	     -0.58195794	      0.90010584	      0.20113460	     34.29728002	    -16.11626193	    -18.85083219	      7.94012335	      0.13858130	      1.46287703	     13.39534650	      0.00000000	    -13.21565833	      8.66440694	    -16.26206362	     10.30352579	      0.17983045	      5.49522977	     13.88399868	      0.00000000	      0.00000000	      0.00000000	      0.00000000	     43.81565626	    -16.53792027	     43.81565626	     75.29558639	     44.88199180	      0.00000000	      0.00000000	     43.81565626	    -16.53792027	     43.81565626	     75.29558639	     44.88199180	      0.00000000	      0.00000000
      0.02500000	     -5.38412516	     10.27464622	      3.49382724	     -0.57592939	      0.89951336	      0.20143250	     34.24378799	    -16.07195904	    -18.81196641	      8.16897700	      0.14257555	      1.28985741	     13.12512665	      0.00000000	    -13.49585842	      8.43872551	    -16.11301220	     10.50538279	      0.18335352	      5.17533684	     13.91433436	      0.00000000	      0.00000000	      0.00000000	      0.00000000	     43.81585783	    -16.53748769	     43.81585783	     75.29542366	     44.88217215	      0.00000000	      0.00000000	     43.81585783	    -16.53748769	     43.81585783	     75.29542366	     44.88217215	      0.00000000	      0.00000000
      0.03000000	     -4.96026830	      9.46270669	      4.30283237	     -0.56892373	      0.90041388	      0.20000358	     32.98975491	    -15.62260592	    -19.59640291	      7.74329956	      0.13514607	      0.74001327	     11.96069323	      0.00000000	    -14.23470888	      7.27370109	    -15.51767499	     10.75163983	      0.18765152	      4.85105757	     13.87277827	      0.00000000	      0.00000000	      0.00000000	      0.00000000	     43.82071527	    -16.52707329	     43.82071527	     75.29151674	     44.88645522	      0.00000000	      0.00000000	     43.82071527	    -16.52707329	     43.82071527	     75.29151674	     44.88645522	      0.00000000	      0.00000000
      0.03500000	     -5.05515898	      9.39322945	      4.41660712	     -0.56198151	      0.89957355	      0.20026999	     32.96716495	    -15.56475810	    -19.39256488	      7.94069413	      0.13859126	      0.58773342	     11.94412152	      0.00000000	    -14.48478076	      7.06845896	    -15.38216314	     10.90650325	      0.19035439	      4.63724382	     13.89875269	      0.00000000	      0.00000000	      0.00000000	      0.00000000	     43.82080474	    -16.52688190	     43.82080474	     75.29144526	     44.88653246	      0.00000000	      0.00000000	     43.82080474	    -16.52688190	     43.82080474	     75.29144526	     44.88653246	      0.00000000	      0.00000000
      0.04000000	     -4.89535529	      9.22738413	      4.57275473	     -0.55500536	      0.89929499	      0.20062930	     32.79460391	    -15.47228242	    -19.58168110	      8.50336653	      0.14841174	      0.22495878	     11.17351318	      0.00000000	    -14.88557304	      6.66994208	    -15.34155354	     11.26710808	      0.19664813	      3.93487428	     13.75138276	      0.00000000	      0.00000000	      0.00000000	      0.00000000	     43.82129420	    -16.52583432	     43.82129420	     75.29105388	     44.88695534	      0.00000000	      0.00000000	     43.82129420	    -16.52583432	     43.82129420	     75.29105388	     44.88695534	      0.00000000	      0.00000000
      0.04500000	     -4.81162782	      8.99766501	      4.76380519	     -0.54761036	      0.89892981	      0.20087310	     32.57635663	    -15.31131010	    -19.60807809	      8.92472031	      0.15576575	     -0.07327726	     10.58172807	      0.00000000	    -15.24660140	      6.22521195	    -15.19323107	     11.57373327	      0.20199975	      3.44660255	     13.61093088	      0.00000000	      0.00000000	      0.00000000	      0.00000000	     43.82181367	    -16.52472282	     43.82181367	     75.29063888	     44.88740264	      0.00000000	      0.00000000	     43.82181367	    -16.52472282	     43.82181367	     75.29063888	     44.88740264	      0.00000000	      0.00000000
      0.05000000	     -4.45972080	      8.22604193	      5.35279510	     -0.53973134	      0.89955180	      0.20015412	     31.48008874	    -14.69760642	    -19.93064701	      8.59473423	      0.15000641	     -0.83924924	      9.52327661	      0.00000000	    -15.86458627	      5.10439315	    -14.69046609	     11.87902202	      0.20732805	      2.99020554	     13.39824221	      0.00000000	      0.00000000	      0.00000000	      0.00000000	     43.82579879	    -16.51620501	     43.82579879	     75.28746728	     44.89078629	      0.00000000	      0.00000000	     43.82579879	    -16.51620501	     43.82579879	     75.28746728	     44.89078629	      0.00000000	      0.00000000
      0.05500000	     -4.34848042	      7.98989428	      5.42945765	     -0.53207777	      0.89923580	      0.20070421	     31.29009629	    -14.47784447	    -19.90852976	      9.13314713	      0.15940349	     -1.23165035	      9.04766618	      0.00000000	    -16.21301515	      4.65464249	    -14.67351206	     12.24796054	      0.21376724	      2.32987692	     13.18517217	      0.00000000	      0.00000000	      0.00000000	      0.00000000	     43.82647167	    -16.51476887	     43.82647167	     75.28693436	     44.89134796	      0.00000000	      0.00000000	     43.82647167	    -16.51476887	     43.82647167	     75.28693436	     44.89134796	      0.00000000	      0.00000000
      0.06000000	     -4.22157486	      7.71385891	      5.51264778	     -0.52429595	      0.89902113	      0.20126208	     31.05879510	    -14.21859738	    -19.86728007	      9.67068865	      0.16878536	     -1.70092480	      8.51161168	      0.00000000	    -16.54609852	      4.15197584	    -14.65765977	     12.66070397	      0.22097097	      1.60779851	     12.90233725	      0.00000000	      0.00000000	      0.00000000	      0.00000000	     43.82704254	    -16.51355093	     43.82704254	     75.28648281	     44.89182236	      0.00000000	      0.00000000	     43.82704254	    -16.51355093	     43.82704254	     75.28648281	     44.89182236	      0.00000000	      0.00000000
      0.06500000	     -4.07355537	      7.41242564	      5.57067231	     -0.51646623	      0.89892804	      0.20191722	     30.80554100	    -13.91660369	    -19.80247617	     10.23087086	      0.17856238	     -2.22004965	      7.96807320	      0.00000000	    -16.86879808	      3.62228913	    -14.66561926	     13.11685856	      0.22893237	      0.80822262	     12.55984008	      0.00000000	      0.00000000	      0.00000000	      0.00000000	     43.82749396	    -16.51258814	     43.82749396	     75.28612613	     44.89219611	      0.00000000	      0.00000000	     43.82749396	    -16.51258814	     43.82749396	     75.28612613	     44.89219611	      0.00000000	      0.00000000
      0.07000000	     -3.71917556	      6.62664955	      5.82960249	     -0.50844942	      0.89958643	      0.20210009	     29.88779354	    -13.05682406	    -19.65700585	     10.08318150	      0.17598472	     -3.26624018	      6.58232652	      0.00000000	    -17.30603305	      2.49860516	    -14.58963011	     13.68238146	      0.23880261	      0.09853018	     12.17826353	      0.00000000	      0.00000000	      0.00000000	      0.00000000	     43.83134145	    -16.50439172	     43.83134145	     75.28309865	     44.89533306	      0.00000000	      0.00000000	     43.83134145	    -16.50439172	     43.83134145	     75.28309865	     44.89533306	      0.00000000	      0.00000000
      0.07500000	     -3.52289228	      6.30023559	      5.79061794	     -0.50055463	      0.89967535	      0.20300097	     29.65362458	    -12.70991421	    -19.56774902	     10.79119327	      0.18834185	     -3.78501675	      6.14000731	      0.00000000	    -17.60979156	      1.94981542	    -14.71593115	     14.22796454	      0.24832483	     -0.88323487	     11.71663912	      0.00000000	      0.00000000	      0.00000000	      0.00000000	     43.83184456	    -16.50332125	     43.83184456	     75.28270436	     44.89573759	      0.00000000	      0.00000000	     43.83184456	    -16.50332125	     43.83184456	     75.28270436	     44.89573759	      0.00000000	      0.00000000
      0.08000000	     -3.29922439	      5.90419158	      5.72235561	     -0.49264401	      0.89988400	      0.20402262	     29.39189905	    -12.26947774	    -19.45708055	     11.51730425	      0.20101488	     -4.31331760	      5.54468885	      0.00000000	    -17.88727984	      1.32535400	    -14.86385475	     14.85761564	      0.25931431	     -1.88156458	     11.13907225	      0.00000000	      0.00000000	      0.00000000	      0.00000000	     43.83240924	    -16.50212011	     43.83240924	     75.28226227	     44.89618995	      0.00000000	      0.00000000	     43.83240924	    -16.50212011	     43.83240924	     75.28226227	     44.89618995	      0.00000000	      0.00000000
